HIERARCHY
ROOT Hips
{
  OFFSET 0 33.962 0
  CHANNELS 6 Xposition Yposition Zposition Zrotation Xrotation Yrotation
  JOINT RightHipJoint
  {
    OFFSET 0 0 0
    CHANNELS 3 Zrotation Xrotation Yrotation
    JOINT RightUpLeg
    {
      OFFSET -2.97451 -2.05947 0
      CHANNELS 3 Zrotation Xrotation Yrotation
      JOINT RightLeg
      {
        OFFSET 0 -16.9295 0
        CHANNELS 3 Zrotation Xrotation Yrotation
        JOINT RightFoot
        {
          OFFSET 0 -12.3084 0
          CHANNELS 3 Zrotation Xrotation Yrotation
          JOINT RightToeBase
          {
            OFFSET 0 -1.45952 4.1706
            CHANNELS 3 Zrotation Xrotation Yrotation
            End Site
            {
              OFFSET 0 0.380528 1.88646
            }
          }
        }
      }
    }
  }
  JOINT LeftHipJoint
  {
    OFFSET 0 0 0
    CHANNELS 3 Zrotation Xrotation Yrotation
    JOINT LeftUpLeg
    {
      OFFSET 2.97451 -2.05947 0
      CHANNELS 3 Zrotation Xrotation Yrotation
      JOINT LeftLeg
      {
        OFFSET 0 -16.9295 0
        CHANNELS 3 Zrotation Xrotation Yrotation
        JOINT LeftFoot
        {
          OFFSET 0 -12.3084 0
          CHANNELS 3 Zrotation Xrotation Yrotation
          JOINT LeftToeBase
          {
            OFFSET 0 -1.45952 4.1706
            CHANNELS 3 Zrotation Xrotation Yrotation
            End Site
            {
              OFFSET 0 0.380528 1.88646
            }
          }
        }
      }
    }
  }
  JOINT LowerBack
  {
    OFFSET -0.0036625 0.510784 -2.23482
    CHANNELS 3 Zrotation Xrotation Yrotation
    JOINT Spine
    {
      OFFSET 0.00406798 3.05724 0.271409
      CHANNELS 3 Zrotation Xrotation Yrotation
      JOINT Spine1
      {
        OFFSET 0 3.94532 0.605325
        CHANNELS 3 Zrotation Xrotation Yrotation
        JOINT RightShoulder
        {
          OFFSET -2.46238 6.7817 0.985371
          CHANNELS 3 Zrotation Xrotation Yrotation
          JOINT RightDummyShoulder
          {
            OFFSET 0 0 0
            CHANNELS 3 Zrotation Xrotation Yrotation
            JOINT RightArm
            {
              OFFSET -3.41514 0.382168 0.208038
              CHANNELS 3 Zrotation Xrotation Yrotation
              JOINT RightForeArm
              {
                OFFSET -6.74994 0 -0.448005
                CHANNELS 3 Zrotation Xrotation Yrotation
                JOINT RightHand
                {
                  OFFSET -7.67291 0 0
                  CHANNELS 3 Zrotation Xrotation Yrotation
                  End Site
                  {
                    OFFSET -3.75012 0 0
                  }
                }
              }
            }
          }
        }
        JOINT LeftShoulder
        {
          OFFSET 2.46238 6.7817 0.985371
          CHANNELS 3 Zrotation Xrotation Yrotation
          JOINT LeftDummyShoulder
          {
            OFFSET 0 0 0
            CHANNELS 3 Zrotation Xrotation Yrotation
            JOINT LeftArm
            {
              OFFSET 3.41514 0.382168 0.208038
              CHANNELS 3 Zrotation Xrotation Yrotation
              JOINT LeftForeArm
              {
                OFFSET 6.74994 0 -0.448005
                CHANNELS 3 Zrotation Xrotation Yrotation
                JOINT LeftHand
                {
                  OFFSET 7.67291 0 0
                  CHANNELS 3 Zrotation Xrotation Yrotation
                  End Site
                  {
                    OFFSET 3.75012 0 0
                  }
                }
              }
            }
          }
        }
        JOINT Neck
        {
          OFFSET 0 7.72218 0.649176
          CHANNELS 3 Zrotation Xrotation Yrotation
          JOINT Head
          {
            OFFSET 0 2.8134 0.8129
            CHANNELS 3 Zrotation Xrotation Yrotation
            End Site
            {
              OFFSET 0 3.18746 0.758962
            }
          }
        }
      }
    }
  }
}
MOTION
Frames:	10
Frame Time:	0.0333333
-6.00606 34.0218 90.1503 9.06637 2.48333 96.1303 0 2.83268e-15 -0 -7.82882 26.4651 -25.5572 -6.55701e-05 10.7104 0.0853001 13.1048 -0.588032 -16.6113 -1.04966e-06 -26.1502 6.23095e-07 0 2.83268e-15 -0 -1.82063 -5.92171 22.2836 0.00177062 5.35657 0.0139911 5.73289 -9.40326 26.3712 -2.55479e-06 -13.7478 -3.93435e-06 0 2.83268e-15 -0 0.409734 6.18197 6.35121 0.125429 12.3711 12.7705 -21.9607 -7.5013 -6.1271 3.18055e-15 -1.59028e-15 6.36111e-15 79.0376 0.825416 15.4231 -2.70602e-05 2.28963e-06 33.373 -16.3008 -14.4905 -5.04884 14.256 11.4553 -6.10913 7.95139e-16 -1.98785e-15 -3.18055e-15 -86.2744 12.2177 -8.18349 -1.18722e-06 -7.7019e-06 -18.4413 4.90191 -3.35083 -2.22619 6.78418 7.27004 12.3779 10.4925 -2.9756 38.4224 
-5.03358 33.785 89.58 8.86174 3.26628 97.0028 -2.68972e-32 -1.93815e-15 -7.95139e-16 -9.69594 28.0967 -24.106 0.000111118 11.4752 0.104461 15.1864 -0.202355 -17.319 -3.56908e-06 -26.4724 -5.103e-06 -2.68972e-32 -1.93815e-15 -7.95139e-16 -2.77835 -5.78994 23.1087 0.000598718 7.97567 0.0197371 6.18287 -6.74081 29.0558 -1.39071e-06 -14.5581 -3.83574e-06 -2.68972e-32 -1.93815e-15 -7.95139e-16 0.0828433 5.97597 6.72227 -0.547195 11.9201 13.547 -21.3953 -7.44279 -5.94982 -6.36111e-15 0 -3.18055e-15 79.6998 2.66645 15.6034 2.17647e-05 -8.73372e-06 35.6518 -16.1079 -13.265 -4.45953 13.4552 11.5464 -5.65925 -1.59028e-15 -7.95139e-16 3.18055e-15 -86.5571 11.9845 -7.27179 3.46527e-05 -5.0282e-07 -17.656 4.18524 -2.14599 -2.13498 7.32547 6.77484 12.0768 9.90052 -3.09776 37.889 
-4.0246 33.5955 88.8421 8.45578 4.70872 98.0653 -0 -5.96354e-16 -0 -12.8622 29.0601 -21.6386 -5.07548e-05 13.5656 0.124586 17.7286 0.761862 -18.5936 -5.94381e-06 -27.0595 5.57309e-06 -0 -5.96354e-16 -0 -4.5712 -6.152 21.8968 5.88413e-05 11.9969 0.0183816 4.05664 -5.46115 28.6968 -2.69817e-06 -13.8696 -4.29287e-06 -0 -5.96354e-16 -0 -0.465684 5.73249 6.89843 -1.63611 11.3663 13.9478 -20.084 -7.36038 -5.9998 3.18055e-15 -3.97569e-15 -0 79.9311 4.74607 15.7267 -1.28534e-05 -5.09296e-07 37.3952 -16.2364 -11.4193 -4.01035 12.1724 11.8346 -5.06398 -3.97569e-16 -3.57812e-15 6.36111e-15 -86.2352 11.9587 -6.60266 -7.15502e-07 1.232e-06 -16.9931 3.32261 -0.173706 -1.70132 7.79125 6.42718 11.8347 9.46053 -3.02833 37.4729 
-3.05351 33.5158 88.0318 8.29811 5.90971 99.7584 -1.59028e-15 5.96354e-16 3.18055e-15 -15.7402 28.7994 -17.3878 -7.10545e-06 18.2717 0.151371 19.4738 2.53144 -21.4862 5.33353e-06 -26.653 5.70127e-06 -1.59028e-15 5.96354e-16 3.18055e-15 -6.19381 -6.25102 21.2393 -2.52031e-05 16.8741 0.0246237 3.82531 -6.69485 27.0429 -4.59097e-06 -13.7814 -1.33932e-06 -1.59028e-15 5.96354e-16 3.18055e-15 -0.874801 5.5999 6.95469 -2.44526 11.0505 14.094 -19.1577 -7.00213 -6.26275 -0 -2.38542e-15 -0 81.1409 6.18338 15.254 3.2812e-05 7.03442e-07 38.3897 -16.8968 -10.351 -3.72066 11.5127 12.1466 -5.1476 -2.78299e-15 -2.28602e-15 -0 -85.9763 12.0931 -6.82868 -3.78479e-06 4.83553e-07 -15.9169 3.2192 -0.771188 -1.98915 8.04725 6.03635 11.4027 9.36348 -2.90939 36.8692 
-2.15876 33.5521 87.2222 9.37251 6.34212 101.667 -2.38542e-15 -1.19271e-15 -4.77083e-15 -16.993 27.4412 -11.5508 -2.89822e-05 25.9438 0.179717 18.3482 6.70348 -25.5416 -8.96563e-06 -24.0089 -2.73313e-06 -2.38542e-15 -1.19271e-15 -4.77083e-15 -7.20936 -3.79547 21.7142 -0.000112898 18.9853 0.0405064 4.90656 -8.82429 24.8009 -6.54856e-07 -13.1428 3.54222e-06 -2.38542e-15 -1.19271e-15 -4.77083e-15 -0.772902 5.82385 6.95213 -2.27012 11.5092 14.0909 -19.4721 -6.79168 -6.37382 3.18055e-15 7.95139e-16 -0 83.5861 6.90683 13.8342 2.77166e-05 -1.57577e-06 38.1399 -16.8054 -10.2676 -3.43728 11.7766 12.1468 -5.61609 -1.19271e-15 5.96354e-16 3.18055e-15 -86.5898 12.2863 -7.51675 7.42329e-06 -4.92537e-06 -14.9427 2.97076 2.3731 -1.45741 7.68462 5.99746 11.2298 9.28341 -3.11228 35.9824 
-1.39703 33.6539 86.455 10.6333 6.34677 103.685 -7.95139e-16 3.97569e-15 -1.59028e-15 -16.8517 24.7321 -8.14003 1.13685e-05 34.647 0.173569 13.6038 13.6122 -27.3891 8.73368e-06 -24.1324 -7.93007e-07 -7.95139e-16 3.97569e-15 -1.59028e-15 -8.11581 -0.196388 21.6026 0.000120287 18.0537 0.0550688 6.34156 -9.81211 23.3358 1.97376e-06 -12.8767 1.0754e-05 -7.95139e-16 3.97569e-15 -1.59028e-15 -0.39637 6.10303 6.73063 -1.52691 12.1164 13.6193 -19.7831 -6.95336 -6.36305 -1.59028e-15 -7.95139e-16 3.18055e-15 85.7323 7.52869 12.3799 -5.16706e-05 1.69977e-06 36.4262 -15.5061 -9.30375 -3.29289 12.09 11.8259 -5.83394 2.38542e-15 9.93923e-16 3.18055e-15 -87.4404 12.6305 -8.11079 5.0079e-05 5.3504e-08 -14.775 2.39296 5.65702 -0.756426 6.99489 5.99893 11.339 9.30348 -2.93219 35.2996 
-0.738979 33.7874 85.7749 11.23 6.1515 106.41 -7.95139e-16 -2.38542e-15 -3.18055e-15 -15.6292 21.2679 -6.14266 3.30353e-06 43.0762 0.229073 13.3462 11.2874 -25.6495 4.52181e-06 -22.5908 -1.60163e-05 -7.95139e-16 -2.38542e-15 -3.18055e-15 -8.74561 2.89109 20.8362 1.43982e-05 16.1909 0.0653178 7.78705 -10.1114 21.77 -5.02402e-07 -10.1778 -2.33098e-06 -7.95139e-16 -2.38542e-15 -3.18055e-15 -0.0117174 6.22565 6.27087 -0.718513 12.4122 12.6557 -19.4356 -6.54004 -6.45194 -1.59028e-15 -1.59028e-15 -0 86.8708 8.39374 11.7252 7.27649e-06 1.54096e-06 34.1196 -14.5203 -8.73176 -3.35618 12.8268 11.4997 -6.22922 -3.97569e-16 1.39149e-15 9.54166e-15 -88.0523 13.879 -9.11158 1.71496e-05 -1.41124e-05 -15.7275 2.20801 3.77691 -1.10439 6.63328 5.72079 11.283 9.12848 -2.6937 34.9073 
-0.138517 33.9257 85.1625 11.5623 5.53001 109.733 0 2.38542e-15 -0 -13.466 17.5544 -5.75259 3.32252e-05 49.9356 0.177857 8.4275 4.25691 -18.9819 -4.3258e-06 -24.7928 -3.59003e-06 0 2.38542e-15 -0 -8.64908 5.69453 19.1841 -4.82078e-06 13.8632 0.0565703 7.59602 -10.011 20.1498 -1.67986e-06 -10.4723 -1.57772e-05 0 2.38542e-15 -0 0.497534 6.27504 5.7074 0.363607 12.5683 11.464 -18.9824 -5.80932 -6.66421 3.18055e-15 0 6.36111e-15 87.4454 9.19811 11.093 1.91622e-05 -1.78228e-05 31.9078 -13.9539 -7.46964 -3.3428 13.9742 10.5957 -6.9536 3.97569e-16 6.55989e-15 -3.18055e-15 -88.426 16.0342 -9.9477 5.08841e-05 -7.33391e-07 -18.0937 2.22887 1.78533 -1.53205 6.46744 5.26577 10.9399 8.90588 -2.83438 34.3463 
0.444473 34.0706 84.5406 12.0579 4.86307 113.426 -7.95139e-16 2.38542e-15 -0 -11.194 13.9434 -5.72402 1.85847e-05 53.4275 0.196035 8.22263 -0.413784 -16.4532 -7.89366e-06 -23.1124 -2.27179e-05 -7.95139e-16 2.38542e-15 -0 -8.20922 8.61986 17.5666 -3.32089e-05 11.4248 0.0490226 7.87475 -9.67661 18.4403 2.14584e-07 -10.4091 7.19335e-06 -7.95139e-16 2.38542e-15 -0 1.09224 6.38165 5.04542 1.62676 12.8343 10.0623 -18.3264 -4.79102 -6.86418 3.18055e-15 2.38542e-15 -9.54166e-15 87.6058 9.29371 10.4866 8.17082e-06 9.68486e-07 29.8953 -13.291 -5.82348 -3.16722 15.2242 10.0662 -7.72335 -1.19271e-15 -1.98785e-15 -0 -88.1905 18.5157 -11.5009 2.45397e-05 5.25865e-06 -21.4821 2.74603 0.296259 -1.81831 6.23575 4.67934 10.6533 8.77085 -3.17294 33.9879 
1.01052 34.1781 83.9318 12.5935 4.20336 117.429 2.20695e-31 -3.97569e-15 3.18055e-15 -8.91002 10.5496 -5.76318 9.1888e-06 53.8833 0.221448 8.796 -2.18748 -17.1994 -1.67412e-05 -22.5685 -3.77062e-06 2.20695e-31 -3.97569e-15 3.18055e-15 -7.39145 11.4973 15.6482 3.1456e-05 9.05302 0.0384844 8.01333 -9.59554 16.5113 1.63145e-06 -10.7196 -2.19624e-05 2.20695e-31 -3.97569e-15 3.18055e-15 1.70459 6.47627 4.37217 2.93237 13.0622 8.63212 -17.5247 -3.7528 -7.37513 2.64834e-31 -1.59028e-15 9.54166e-15 87.8456 7.98533 9.53449 -1.99826e-06 -1.76775e-06 27.9375 -12.6937 -4.74684 -2.97097 16.5284 9.22727 -8.50834 1.59028e-15 1.98785e-15 -0 -87.6516 20.8566 -13.0583 4.63111e-05 -2.03904e-06 -25.3079 3.70375 -1.60932 -2.41696 6.35215 3.96903 10.1163 8.3767 -3.59446 33.3508 
